<svg data-v-0dd9719b="" version="1.0" xmlns="http://www.w3.org/2000/svg" xmlns:xlink="http://www.w3.org/1999/xlink" width="100%" height="100%" viewBox="0 0 340.000000 250.000000" preserveAspectRatio="xMidYMid meet" color-interpolation-filters="sRGB" style="margin: auto;"> <rect data-v-0dd9719b="" x="0" y="0" width="100%" height="100%" fill="#fff" fill-opacity="1" class="background"></rect> <rect data-v-0dd9719b="" x="0" y="0" width="100%" height="100%" fill="url(#watermark)" fill-opacity="1" class="watermarklayer"></rect> <g data-v-0dd9719b="" fill="#333" class="icon-text-wrapper icon-svg-group iconsvg" transform="translate(56.105003356933594,90.79715347297842)"><g class="iconsvg-imagesvg" transform="translate(0,0)"><g><rect fill="#333" fill-opacity="0" stroke-width="2" x="0" y="0" width="60" height="68.40569135352061" class="image-rect"></rect> <svg x="0" y="0" width="60" height="68.40569135352061" filtersec="colorsb600777746" class="image-svg-svg primary" style="overflow: visible;"><svg xmlns="http://www.w3.org/2000/svg" viewBox="0.003014802932739258 -0.0036209821701049805 179.03366088867188 204.11647033691406"><path d="M40.24 38.36a77.21 77.21 0 0 0-16.4 17 80.23 80.23 0 0 0 5.63 100.22c16.46 18.33 37.27 27 61.78 27a81.51 81.51 0 0 0 10.55-1c1.75-.23 2.48.11 2.42 2-.28 8.31 1.22 6.51-5.85 7.22-23.36 2.34-44.65-3.47-63.32-17.83-17.8-13.57-29.16-31.53-33.31-53.64-5-26.55.81-50.76 17.23-72.28a64.49 64.49 0 0 1 13.28-13.57c9-6.43 16.46-14.45 24.24-22.17C60 7.86 63.42 4.38 66.89.93c.42-.41.77-1.19 1.52-.85s.45 1.12.46 1.72v133.35A5.88 5.88 0 0 1 67 139.7c-7.94 7.83-15.8 15.75-23.71 23.61-.6.6-1.08 1.82-2.05 1.45s-.51-1.61-.51-2.45V42.02a6.63 6.63 0 0 0-.49-3.66zM109.91 134.93v-65.6a6.8 6.8 0 0 1 2.19-5.26c7.88-7.76 15.67-15.62 23.52-23.43.6-.59 1.11-1.81 2.09-1.36s.45 1.63.45 2.49v119.49c0 1.36-.75 3.35.63 4 1.09.47 2.2-1.3 3.2-2.17 14.29-12.38 23.73-27.83 26.69-46.44 5.05-31.69-4.89-58.14-30.21-78.26-16.12-12.81-34.79-17.78-55.21-16.62a53.89 53.89 0 0 0-6.47.78c-1.54.28-2-.31-1.94-1.69.22-7.62-1.49-7 6.36-7.66 27.12-2.3 50.62 6 70.38 24.62 12.3 11.6 20.79 25.69 24.59 42.17 7.7 33.37 0 62.95-25.12 86.42-13 12.12-26.13 24-38.74 36.54-.49.49-.94 1.39-1.72 1.11-1.11-.41-.65-1.57-.65-2.4q-.05-33.38-.04-66.73z" fill="#1673bd"></path><path d="M103.33 88.87v45.7a7.26 7.26 0 0 1-2.4 5.71c-7.71 7.52-15.23 15.23-22.85 22.84-.59.6-1.14 1.71-2.19 1.19-.83-.41-.5-1.46-.5-2.24 0-29.92.09-59.85-.07-89.77a12.65 12.65 0 0 1 4.26-10.17c7.31-6.91 14.3-14.16 21.45-21.25.52-.51.93-1.63 1.92-1.09.73.4.31 1.33.31 2v47.07z" fill="#fbaa05"></path></svg></svg> <!----></g></g> <g transform="translate(67,10.531597137451172)"><g data-gra="path-name" fill-rule="" class="tp-name iconsvg-namesvg" transform="translate(0,0)"><g transform="scale(1)"><g><path d="M36.9-25.29L31.81-23.04C31.18-22.77 30.78-23.09 30.78-23.76L30.78-30.64C30.78-31.5 30.29-31.99 29.43-31.99L22.86-31.99C21.78-31.99 21.38-31.27 21.96-30.38L22.32-29.79C22.54-29.38 22.63-29.11 22.63-28.71L22.63-1.71C22.63-0.85 23.13-0.36 23.98-0.36L37.98-0.36C38.84-0.36 39.33-0.85 39.33-1.71L39.33-6.3C39.33-7.51 38.52-7.83 37.66-6.97L36.63-5.94C36.27-5.58 36-5.49 35.55-5.49L31.68-5.49C31.09-5.49 30.78-5.8 30.78-6.39L30.78-16.7C30.78-17.19 31-17.55 31.45-17.77L37.44-20.43C38.12-20.75 38.48-21.24 38.48-22L38.48-24.3C38.48-25.29 37.84-25.7 36.9-25.29ZM10.75 0.4L16.16 0.4C17.01 0.4 17.5-0.09 17.5-0.94L17.5-30.64C17.5-31.5 17.01-31.99 16.16-31.99L9.63-31.99C8.55-31.99 8.14-31.27 8.73-30.38L9.09-29.79C9.31-29.38 9.4-29.11 9.4-28.71L9.4-24.34C9.4-23.76 9.09-23.45 8.5-23.45L3.92-23.45C3.06-23.45 2.56-22.95 2.56-22.09L2.56-20.52C2.56-19.66 3.06-19.17 3.92-19.17L8.5-19.17C9.09-19.17 9.4-18.86 9.4-18.27L9.4-10.62C9.4-10.08 9.13-9.76 8.55-9.67L3.42-9.04C2.61-8.96 2.16-8.46 2.16-7.65L2.11-6.08C2.11-5.13 2.65-4.72 3.55-4.81L8.46-5.4C9.04-5.49 9.4-5.13 9.4-4.54L9.4-0.94C9.4-0.09 9.9 0.4 10.75 0.4ZM45.9-22.09L45.9-13.23C45.9-12.38 46.39-11.88 47.25-11.88L56.97-11.88C57.55-11.88 57.87-11.56 57.87-10.98L57.91-4.41C57.91-3.96 57.78-3.65 57.51-3.28L55.8-1.26C55.08-0.36 55.48 0.4 56.61 0.4L63.36 0.4C65.11 0.4 66.42-0.81 66.42-2.56L66.42-10.98C66.42-11.56 66.73-11.88 67.32-11.88L77.04-11.88C77.89-11.88 78.39-12.38 78.39-13.23L78.39-22.09C78.39-22.95 77.89-23.45 77.04-23.45L47.25-23.45C46.39-23.45 45.9-22.95 45.9-22.09ZM44.19-28.08L44.19-26.5C44.19-25.65 44.68-25.15 45.54-25.15L78.75-25.15C79.6-25.15 80.1-25.65 80.1-26.5L80.1-28.08C80.1-28.93 79.6-29.43 78.75-29.43L67.28-29.43C66.69-29.43 66.42-29.7 66.42-30.33L66.42-30.73C66.42-31.59 65.92-31.99 65.07-31.99L58.27-31.99C57.15-31.99 56.74-31.23 57.46-30.33L57.46-30.33C57.73-29.97 57.87-29.74 57.87-29.65 57.87-29.52 57.55-29.43 56.97-29.43L45.54-29.43C44.68-29.43 44.19-28.93 44.19-28.08ZM68.94-8.55L72.36-1.75C72.67-1.08 73.22-0.77 73.94-0.77L78.34-0.77C79.38-0.77 79.78-1.48 79.33-2.38L75.87-9.18C75.56-9.86 75.02-10.17 74.29-10.17L69.93-10.17C68.89-10.17 68.49-9.49 68.94-8.55ZM47.97-9.18L44.59-2.34C44.14-1.4 44.55-0.77 45.59-0.77L49.95-0.77C50.67-0.77 51.21-1.08 51.52-1.75L54.9-8.59C55.35-9.54 54.95-10.17 53.91-10.17L49.55-10.17C48.82-10.17 48.28-9.86 47.97-9.18ZM54.05-17.05L54.05-18.27C54.05-18.86 54.36-19.17 54.95-19.17L69.34-19.17C69.93-19.17 70.25-18.86 70.25-18.27L70.25-17.05C70.25-16.47 69.93-16.16 69.34-16.16L54.95-16.16C54.36-16.16 54.05-16.47 54.05-17.05ZM87.97-29.88L88.11-29.65C88.42-29.02 88.11-28.57 87.44-28.57L85.27-28.57C84.42-28.57 83.92-28.08 83.92-27.22L83.92-22.23C83.92-21.38 84.42-20.88 85.27-20.88L86.44-20.88C87.03-20.88 87.34-20.56 87.34-19.98L87.34-15.57C87.34-14.71 87.84-14.22 88.69-14.22L116.78-14.22C117.63-14.22 118.13-14.71 118.13-15.57L118.13-19.98C118.13-20.56 118.44-20.88 119.03-20.88L120.19-20.88C121.05-20.88 121.54-21.38 121.54-22.23L121.54-27.22C121.54-28.08 121.05-28.57 120.19-28.57L118.03-28.57C117.36-28.57 117.04-29.02 117.36-29.65L117.5-29.88C117.85-30.6 117.36-31.14 116.32-31.14L111.06-31.14C110.25-31.14 109.75-30.91 109.62-30.6 109.48-30.15 109.75-29.88 109.53-29.43L109.44-29.25C109.22-28.8 108.9-28.57 108.41-28.57L107.91-28.57C107.32-28.57 107.01-28.89 107.01-29.47L107.01-30.64C107.01-31.5 106.52-31.99 105.66-31.99L98.82-31.99C97.69-31.99 97.33-31.23 98.01-30.33L98.1-30.24C98.37-29.88 98.46-29.56 98.46-29.16 98.46-28.8 98.14-28.57 97.56-28.57L97.02-28.57C96.52-28.57 96.21-28.8 95.98-29.25L95.53-30.15C95.22-30.82 94.68-31.14 93.96-31.14L89.1-31.14C88.06-31.14 87.61-30.6 87.97-29.88ZM116.82-1.21C118.57-1.21 119.83-2.52 119.83-4.27L119.83-10.62C119.83-11.47 119.34-11.97 118.48-11.97L107.91-11.97C107.32-11.97 107.01-12.24 107.01-12.64 107.01-13.05 106.52-13.32 105.66-13.32L99.81-13.32C99.27-13.32 98.86-13.09 98.64-12.73 98.37-12.24 98.14-11.97 97.65-11.97L87.03-11.97C86.17-11.97 85.68-11.47 85.68-10.62L85.68-2.56C85.68-1.71 86.17-1.21 87.03-1.21L92.88-1.21C93.73-1.21 94.23-1.71 94.23-2.56L94.23-6.79C94.23-7.38 94.55-7.69 95.13-7.69L97.56-7.69C98.14-7.69 98.46-7.38 98.46-6.79L98.46-0.94C98.46-0.09 98.95 0.4 99.81 0.4L105.66 0.4C106.52 0.4 107.01-0.09 107.01-0.94L107.01-6.79C107.01-7.38 107.32-7.69 107.91-7.69L110.38-7.69C110.97-7.69 111.28-7.38 111.28-6.79L111.33-4.41C111.33-4 111.19-3.65 110.97-3.28L110.47-2.52C110.02-1.8 110.52-1.21 111.6-1.21ZM92.97-24.3L112.5-24.3C113.08-24.3 113.4-24.03 113.4-23.54 113.4-23.04 113.08-22.72 112.5-22.72L92.97-22.72C92.38-22.72 92.07-23.04 92.07-23.54 92.07-24.03 92.38-24.3 92.97-24.3ZM96.8-19.26L108.67-19.26C109.26-19.26 109.57-18.95 109.57-18.45 109.57-17.95 109.26-17.64 108.67-17.64L96.8-17.64C96.21-17.64 95.89-17.95 95.89-18.45 95.89-18.95 96.21-19.26 96.8-19.26ZM128.7-8.37L128.7-1.71C128.7-0.85 129.19-0.36 130.05-0.36L159.84-0.36C160.69-0.36 161.19-0.85 161.19-1.71L161.19-8.37C161.19-9.22 160.69-9.72 159.84-9.72L130.05-9.72C129.19-9.72 128.7-9.22 128.7-8.37ZM150.03-17.73L154.39-15.62C154.94-15.34 155.43-15.25 156.06-15.25L160.02-15.25C161.37-15.25 161.59-16.25 160.38-16.83L158.63-17.64C157.81-18.04 158-18.72 158.89-18.72L161.55-18.72C162.4-18.72 162.9-19.21 162.9-20.07L162.9-23.04C162.9-23.89 162.4-24.39 161.55-24.39L150.07-24.39C149.49-24.39 149.17-24.66 149.17-25.15 149.17-25.61 148.68-25.88 147.82-25.88L141.97-25.88C141.12-25.88 140.63-25.38 140.63-24.52L140.63-24.48C140.63-24.43 140.31-24.39 139.72-24.39L128.34-24.39C127.48-24.39 126.99-23.89 126.99-23.04L126.99-20.07C126.99-19.21 127.48-18.72 128.34-18.72L130.95-18.72C131.85-18.72 132.03-18.04 131.22-17.64L129.46-16.83C128.25-16.25 128.47-15.25 129.82-15.25L133.78-15.25C134.41-15.25 134.91-15.34 135.45-15.62L139.86-17.73C141.07-18.31 140.85-19.3 139.5-19.3L135.58-19.3C135-19.3 134.69-19.48 134.69-19.8 134.69-20.11 135-20.29 135.58-20.29L154.3-20.29C154.89-20.29 155.2-20.11 155.2-19.8 155.2-19.48 154.89-19.3 154.3-19.3L150.39-19.3C149.04-19.3 148.81-18.31 150.03-17.73ZM134.28-25.52L138.78-25.52C139.27-25.52 139.63-25.65 139.86-25.88 140.22-26.23 140.35-26.5 140.85-26.5L148.81-26.5C149.4-26.5 149.71-26.32 149.71-26.01 149.71-25.7 150.21-25.52 151.06-25.52L155.56-25.52C156.06-25.52 156.42-25.65 156.64-25.88 157-26.23 157.14-26.5 157.63-26.5L161.55-26.5C162.4-26.5 162.9-27 162.9-27.86L162.9-28.89C162.9-29.74 162.4-30.24 161.55-30.24L157.81-30.24C157.23-30.24 156.91-30.55 156.91-31.14L156.91-31.14C156.91-31.68 156.42-31.99 155.56-31.99L150.34-31.99C149.13-31.99 148.81-31.18 149.67-30.33L149.71-30.29 149.71-30.29C149.71-30.29 149.22-30.24 148.54-30.24L141.03-30.24C140.44-30.24 140.13-30.55 140.13-31.14L140.13-31.14C140.13-31.68 139.63-31.99 138.78-31.99L133.56-31.99C132.34-31.99 132.03-31.18 132.88-30.33L132.93-30.29 132.93-30.29C132.93-30.29 132.44-30.24 131.76-30.24L128.34-30.24C127.48-30.24 126.99-29.74 126.99-28.89L126.99-27.86C126.99-27 127.48-26.5 128.34-26.5L132.03-26.5C132.61-26.5 132.93-26.32 132.93-26.01 132.93-25.7 133.42-25.52 134.28-25.52ZM138.15-16.25L129.42-12.01C128.2-11.43 128.47-10.44 129.82-10.44L135.54-10.44C136.17-10.44 136.66-10.53 137.2-10.8L142.24-13.23C142.6-13.41 142.96-13.5 143.37-13.5L146.52-13.5C146.92-13.5 147.28-13.41 147.64-13.23L152.69-10.8C153.22-10.53 153.72-10.44 154.35-10.44L160.06-10.44C161.41-10.44 161.69-11.43 160.47-12.01L151.74-16.25C151.2-16.52 150.7-16.61 150.07-16.61L139.81-16.61C139.19-16.61 138.69-16.52 138.15-16.25ZM137.25-4.86L137.25-5.22C137.25-5.8 137.56-6.12 138.15-6.12L151.74-6.12C152.32-6.12 152.64-5.8 152.64-5.22L152.64-4.86C152.64-4.27 152.32-3.96 151.74-3.96L138.15-3.96C137.56-3.96 137.25-4.27 137.25-4.86Z" transform="translate(-2.109999895095825, 31.989999771118164)"></path></g> <!----> <!----> <!----> <!----> <!----> <!----> <!----></g></g> <g data-gra="path-slogan" fill-rule="" class="tp-slogan iconsvg-slogansvg" fill="#333" transform="translate(5,38.38999938964844)"><rect x="0" height="1" y="3.9750003814697266" width="8.80999755859375"></rect> <rect height="1" y="3.9750003814697266" width="8.80999755859375" x="141.97999572753906"></rect> <g transform="translate(11.80999755859375,0)"><g transform="scale(1)"><path d="M4.13-7.64L2.06-7.64L2.06-4.97L4.13-4.97Q5.95-4.92 5.91-6.38L5.91-6.38Q5.91-7.64 4.13-7.64L4.13-7.64ZM4.59 0L0.89 0L0.89-8.58L4.69-8.58Q6.98-8.48 7.08-6.42L7.08-6.42Q7.08-5.16 5.95-4.64L5.95-4.64Q7.55-4.08 7.55-2.53L7.55-2.53Q7.41-0.09 4.59 0L4.59 0ZM4.31-3.98L2.06-3.98L2.06-0.98L4.55-0.98Q6.33-1.03 6.38-2.53L6.38-2.53Q6.38-3.98 4.31-3.98L4.31-3.98ZM10.17-1.03L15.33-1.03L15.33 0L9 0L9-8.58L15.23-8.58L15.23-7.59L10.17-7.59L10.17-4.92L14.86-4.92L14.86-3.89L10.17-3.89L10.17-1.03ZM17.02-8.58L18.19-8.58L18.19 0L17.02 0L17.02-8.58ZM19.45-1.92L19.45-2.77L20.53-2.77L20.53-2.16Q20.53-0.75 21.84-0.75L21.84-0.75Q23.20-0.75 23.20-2.25L23.20-2.25L23.20-8.58L24.38-8.58L24.38-2.30Q24.33 0.09 21.89 0.14L21.89 0.14Q19.59 0.09 19.45-1.92L19.45-1.92ZM26.34-8.58L27.52-8.58L27.52 0L26.34 0L26.34-8.58ZM30.89-8.58L35.20-1.64L35.20-8.58L36.33-8.58L36.33 0L35.02 0L30.66-6.94L30.61-6.94L30.61 0L29.48 0L29.48-8.58L30.89-8.58ZM44.53-3.61L41.91-3.61L41.91-4.59L45.66-4.59L45.66 0L44.91 0L44.63-1.08Q43.64 0.09 41.81 0.14L41.81 0.14Q40.08 0.14 39.14-0.75L39.14-0.75Q37.73-2.06 37.78-4.36L37.78-4.36Q38.11-8.63 41.86-8.81L41.86-8.81Q45.05-8.63 45.52-6L45.52-6L44.39-6Q43.92-7.78 41.81-7.83L41.81-7.83Q39.14-7.64 39-4.31L39-4.31Q39-0.75 41.86-0.75L41.86-0.75Q42.89-0.75 43.64-1.31L43.64-1.31Q44.58-2.06 44.53-3.61L44.53-3.61ZM57.94-6.05L57.94-6.05L56.81-6.05Q56.39-7.78 54.42-7.83L54.42-7.83Q51.70-7.69 51.61-4.36L51.61-4.36Q51.61-0.80 54.47-0.80L54.47-0.80Q56.44-0.84 56.91-3.19L56.91-3.19L58.03-3.19Q57.52 0.05 54.23 0.14L54.23 0.14Q50.48 0 50.39-4.31L50.39-4.31Q50.58-8.63 54.42-8.81L54.42-8.81Q57.47-8.72 57.94-6.05ZM60.56-5.06L65.06-5.06L65.06-8.58L66.23-8.58L66.23 0L65.06 0L65.06-3.98L60.56-3.98L60.56 0L59.39 0L59.39-8.58L60.56-8.58L60.56-5.06ZM73.69 0L72.84-2.48L69.38-2.48L68.48 0L67.31 0L70.55-8.58L71.86-8.58L74.95 0L73.69 0ZM71.11-7.31L69.75-3.52L72.42-3.52L71.16-7.31L71.11-7.31ZM77.39-8.58L81.70-1.64L81.70-8.58L82.83-8.58L82.83 0L81.52 0L77.16-6.94L77.11-6.94L77.11 0L75.98 0L75.98-8.58L77.39-8.58ZM91.03-3.61L88.41-3.61L88.41-4.59L92.16-4.59L92.16 0L91.41 0L91.13-1.08Q90.14 0.09 88.31 0.14L88.31 0.14Q86.58 0.14 85.64-0.75L85.64-0.75Q84.23-2.06 84.28-4.36L84.28-4.36Q84.61-8.63 88.36-8.81L88.36-8.81Q91.55-8.63 92.02-6L92.02-6L90.89-6Q90.42-7.78 88.31-7.83L88.31-7.83Q85.64-7.64 85.50-4.31L85.50-4.31Q85.50-0.75 88.36-0.75L88.36-0.75Q89.39-0.75 90.14-1.31L90.14-1.31Q91.08-2.06 91.03-3.61L91.03-3.61ZM98.06-3.70L95.25-3.70L95.25 0L94.08 0L94.08-8.58L98.06-8.58Q100.92-8.58 100.92-6.28L100.92-6.28Q100.92-4.88 99.70-4.22L99.70-4.22Q100.73-3.94 100.73-2.58L100.73-2.58L100.83-1.03Q100.78-0.38 101.25-0.19L101.25-0.19L101.25 0L99.80 0Q99.66-0.61 99.61-2.16L99.61-2.16Q99.66-3.70 98.06-3.70L98.06-3.70ZM98.16-7.64L95.25-7.64L95.25-4.69L97.97-4.69Q99.70-4.69 99.70-6.19L99.70-6.19Q99.70-7.64 98.16-7.64L98.16-7.64ZM109.36-4.27L109.36-4.27Q109.17-7.64 106.36-7.83L106.36-7.83Q103.50-7.69 103.36-4.27L103.36-4.27Q103.50-0.94 106.36-0.80L106.36-0.80Q109.17-0.98 109.36-4.27ZM110.53-4.27L110.53-4.27Q110.25 0 106.36 0.14L106.36 0.14Q102.42 0 102.14-4.27L102.14-4.27Q102.38-8.72 106.36-8.81L106.36-8.81Q110.25-8.67 110.53-4.27ZM113.30-8.58L117.61-1.64L117.61-8.58L118.73-8.58L118.73 0L117.42 0L113.06-6.94L113.02-6.94L113.02 0L111.89 0L111.89-8.58L113.30-8.58ZM126.94-3.61L124.31-3.61L124.31-4.59L128.06-4.59L128.06 0L127.31 0L127.03-1.08Q126.05 0.09 124.22 0.14L124.22 0.14Q122.48 0.14 121.55-0.75L121.55-0.75Q120.14-2.06 120.19-4.36L120.19-4.36Q120.52-8.63 124.27-8.81L124.27-8.81Q127.45-8.63 127.92-6L127.92-6L126.80-6Q126.33-7.78 124.22-7.83L124.22-7.83Q121.55-7.64 121.41-4.31L121.41-4.31Q121.41-0.75 124.27-0.75L124.27-0.75Q125.30-0.75 126.05-1.31L126.05-1.31Q126.98-2.06 126.94-3.61L126.94-3.61Z" transform="translate(-0.890625, 8.8125)"></path></g></g></g></g></g><defs v-gra="od"></defs></svg>